<?xml version="1.0" encoding="utf-8"?>
<svg width="850" height="850" id="svg2" version="1.0" xmlns="http://www.w3.org/2000/svg">
  <g id="layer1" style="display: inline;">
    <path style="fill: rgb(127, 127, 127); fill-opacity: 1; stroke-linecap: butt; stroke-miterlimit: 4; stroke-dasharray: none; stroke-opacity: 1; filter: none; paint-order: fill; stroke: rgb(23, 156, 222); stroke-width: 50px;" id="pathShadowGlow" d="M 800,400 A 400,400 0 1 1 0,400 A 400,400 0 1 1 800,400 z" transform="translate(25, 25)"/>
  </g>
  <g id="layer2" transform="matrix(-0.5, 0.866026, 0.866026, 0.5, 269.439178, -155.560806)">
    <g id="gYinAndYang" transform="matrix(0,-1,1,0,0,850)">
      <g transform="matrix(-1,0,0,-1,825,825)" style="fill:#000000;fill-opacity:1" id="gYin">
        <path style="fill-opacity: 1; stroke: none; fill: rgb(23, 156, 222);" d="M 425,25 C 204.2,25 25,204.2 25,425 25,645.8 204.2,825 425,825 314.6,825 225,735.4 225,625 225,514.6 314.6,425 425,425 535.4,425 625,335.4 625,225 625,114.6 535.4,25 425,25 z m 0,137.5 c 34.5,0 62.5,28 62.5,62.5 0,34.5 -28,62.5 -62.5,62.5 -34.5,0 -62.5,-28 -62.5,-62.5 0,-34.5 28,-62.5 62.5,-62.5 z" id="pathYinBG" transform="matrix(-1,0,0,-1,825,825)"/>
        <path style="fill-opacity: 1; stroke: none; fill: rgb(255, 255, 255);" id="pathYinS" d="M 467.23 195.771 C 467.23 236.899 435.666 270.24 396.729 270.24 C 357.793 270.24 326.229 236.899 326.229 195.771 C 326.229 154.643 357.793 121.302 396.729 121.302 C 435.666 121.302 467.23 154.643 467.23 195.771 Z"/>
      </g>
      <g id="gYang">
        <path id="pathYangBG" d="m 425,25 c 110.4,0 200,89.6 200,200 0,110.4 -89.6,200 -200,200 -110.4,0 -200,89.6 -200,200 0,110.4 89.6,200 200,200 C 645.8,825 825,645.8 825,425 825,204.2 645.8,25 425,25 z m 0,537.5 c 34.5,0 62.5,28 62.5,62.5 0,34.5 -28,62.5 -62.5,62.5 -34.5,0 -62.5,-28 -62.5,-62.5 0,-34.5 28,-62.5 62.5,-62.5 z" style="fill:#ffffff;fill-opacity:1;stroke:none"/>
        <path d="M 495.37 226.738 C 495.37 187.57 464.276 155.817 425.919 155.817 C 387.562 155.817 356.468 187.57 356.468 226.738 C 356.468 265.906 387.562 297.658 425.919 297.658 C 464.276 297.658 495.37 265.906 495.37 226.738 Z" id="pathYangS" style="fill-opacity: 1; stroke: none; fill: rgb(23, 156, 222);"/>
      </g>
    </g>
  </g>
</svg>