<?xml version="1.0" encoding="utf-8"?>
<svg width="850" height="850" id="svg2" version="1.0" xmlns="http://www.w3.org/2000/svg">
  <defs id="defs4">
    <filter id="filter3073">
      <feGaussianBlur stdDeviation="12.375" id="feGaussianBlur3075"/>
    </filter>
  </defs>
  <g id="layer1" style="display: inline;">
    <path style="opacity: 0.5; fill: rgb(127, 127, 127); fill-opacity: 1; stroke: rgb(127, 127, 127); stroke-width: 25; stroke-linecap: butt; stroke-miterlimit: 4; stroke-dasharray: none; stroke-opacity: 1; filter: url(#filter3073);" id="pathShadowGlow" d="M 800,400 A 400,400 0 1 1 0,400 A 400,400 0 1 1 800,400 z" transform="translate(25, 25)"/>
  </g>
  <g id="layer2" transform="matrix(-0.5, 0.866026, 0.866026, 0.5, 269.439178, -155.560806)">
    <g id="gYinAndYang" transform="matrix(0,-1,1,0,0,850)">
      <g transform="matrix(-1,0,0,-1,825,825)" style="fill:#000000;fill-opacity:1" id="gYin">
        <path style="fill-opacity: 1; stroke: none; fill: rgb(0, 136, 204);" d="M 425,25 C 204.2,25 25,204.2 25,425 25,645.8 204.2,825 425,825 314.6,825 225,735.4 225,625 225,514.6 314.6,425 425,425 535.4,425 625,335.4 625,225 625,114.6 535.4,25 425,25 z m 0,137.5 c 34.5,0 62.5,28 62.5,62.5 0,34.5 -28,62.5 -62.5,62.5 -34.5,0 -62.5,-28 -62.5,-62.5 0,-34.5 28,-62.5 62.5,-62.5 z" transform="matrix(-1,0,0,-1,825,825)" id="pathYinBG"/>
        <path transform="matrix(1.25,0,0,1.25,-100,-50)" style="fill-opacity: 1; stroke: none; fill: rgb(0, 136, 204);" id="pathYinS" d="m 450,200 c 0,27.61424 -22.38576,50 -50,50 -27.61424,0 -50,-22.38576 -50,-50 0,-27.61424 22.38576,-50 50,-50 27.61424,0 50,22.38576 50,50 z"/>
      </g>
      <g id="gYang">
        <path id="pathYangBG" d="m 425,25 c 110.4,0 200,89.6 200,200 0,110.4 -89.6,200 -200,200 -110.4,0 -200,89.6 -200,200 0,110.4 89.6,200 200,200 C 645.8,825 825,645.8 825,425 825,204.2 645.8,25 425,25 z m 0,537.5 c 34.5,0 62.5,28 62.5,62.5 0,34.5 -28,62.5 -62.5,62.5 -34.5,0 -62.5,-28 -62.5,-62.5 0,-34.5 28,-62.5 62.5,-62.5 z" style="fill:#ffffff;fill-opacity:1;stroke:none"/>
        <path transform="matrix(1.25,0,0,-1.25,-75,475)" d="m 450,200 c 0,27.61424 -22.38576,50 -50,50 -27.61424,0 -50,-22.38576 -50,-50 0,-27.61424 22.38576,-50 50,-50 27.61424,0 50,22.38576 50,50 z" id="pathYangS" style="fill:#ffffff;fill-opacity:1;stroke:none"/>
      </g>
    </g>
  </g>
</svg>